<mxfile host="app.diagrams.net" modified="2020-08-13T02:05:29.398Z" agent="5.0 (Windows)" etag="BZQToftayxfWUQ3on2VQ" version="13.6.2" type="github">
  <diagram id="C5RBs43oDa-KdzZeNtuy" name="Page-1">
    <mxGraphModel dx="1593" dy="772" grid="1" gridSize="10" guides="1" tooltips="1" connect="1" arrows="1" fold="1" page="1" pageScale="1" pageWidth="827" pageHeight="1169" math="0" shadow="0">
      <root>
        <mxCell id="WIyWlLk6GJQsqaUBKTNV-0" />
        <mxCell id="WIyWlLk6GJQsqaUBKTNV-1" parent="WIyWlLk6GJQsqaUBKTNV-0" />
        <mxCell id="n_A7F0Lf_paovN0THqYE-5" value="" style="edgeStyle=orthogonalEdgeStyle;rounded=0;orthogonalLoop=1;jettySize=auto;html=1;endArrow=none;endFill=0;" edge="1" parent="WIyWlLk6GJQsqaUBKTNV-1" source="n_A7F0Lf_paovN0THqYE-0" target="n_A7F0Lf_paovN0THqYE-3">
          <mxGeometry relative="1" as="geometry" />
        </mxCell>
        <mxCell id="n_A7F0Lf_paovN0THqYE-23" value="" style="edgeStyle=orthogonalEdgeStyle;rounded=0;orthogonalLoop=1;jettySize=auto;html=1;endArrow=none;endFill=0;" edge="1" parent="WIyWlLk6GJQsqaUBKTNV-1" source="n_A7F0Lf_paovN0THqYE-0" target="n_A7F0Lf_paovN0THqYE-22">
          <mxGeometry relative="1" as="geometry" />
        </mxCell>
        <mxCell id="n_A7F0Lf_paovN0THqYE-25" value="" style="edgeStyle=orthogonalEdgeStyle;rounded=0;orthogonalLoop=1;jettySize=auto;html=1;endArrow=none;endFill=0;curved=1;" edge="1" parent="WIyWlLk6GJQsqaUBKTNV-1" source="n_A7F0Lf_paovN0THqYE-0" target="n_A7F0Lf_paovN0THqYE-24">
          <mxGeometry relative="1" as="geometry" />
        </mxCell>
        <mxCell id="n_A7F0Lf_paovN0THqYE-0" value="Estudiantes" style="rounded=0;whiteSpace=wrap;html=1;" vertex="1" parent="WIyWlLk6GJQsqaUBKTNV-1">
          <mxGeometry x="-20" y="180" width="120" height="30" as="geometry" />
        </mxCell>
        <mxCell id="n_A7F0Lf_paovN0THqYE-8" value="" style="edgeStyle=orthogonalEdgeStyle;rounded=0;orthogonalLoop=1;jettySize=auto;html=1;endArrow=none;endFill=0;" edge="1" parent="WIyWlLk6GJQsqaUBKTNV-1" source="n_A7F0Lf_paovN0THqYE-1" target="n_A7F0Lf_paovN0THqYE-7">
          <mxGeometry relative="1" as="geometry" />
        </mxCell>
        <mxCell id="n_A7F0Lf_paovN0THqYE-1" value="Asignaturas" style="rounded=0;whiteSpace=wrap;html=1;" vertex="1" parent="WIyWlLk6GJQsqaUBKTNV-1">
          <mxGeometry x="280" y="180" width="120" height="30" as="geometry" />
        </mxCell>
        <mxCell id="n_A7F0Lf_paovN0THqYE-2" value="Profesores" style="rounded=0;whiteSpace=wrap;html=1;" vertex="1" parent="WIyWlLk6GJQsqaUBKTNV-1">
          <mxGeometry x="560" y="180" width="120" height="30" as="geometry" />
        </mxCell>
        <mxCell id="n_A7F0Lf_paovN0THqYE-6" value="" style="edgeStyle=orthogonalEdgeStyle;rounded=0;orthogonalLoop=1;jettySize=auto;html=1;endArrow=none;endFill=0;" edge="1" parent="WIyWlLk6GJQsqaUBKTNV-1" source="n_A7F0Lf_paovN0THqYE-3" target="n_A7F0Lf_paovN0THqYE-1">
          <mxGeometry relative="1" as="geometry" />
        </mxCell>
        <mxCell id="n_A7F0Lf_paovN0THqYE-3" value="Toma" style="rhombus;whiteSpace=wrap;html=1;" vertex="1" parent="WIyWlLk6GJQsqaUBKTNV-1">
          <mxGeometry x="150" y="175" width="80" height="40" as="geometry" />
        </mxCell>
        <mxCell id="n_A7F0Lf_paovN0THqYE-9" value="" style="edgeStyle=orthogonalEdgeStyle;rounded=0;orthogonalLoop=1;jettySize=auto;html=1;endArrow=none;endFill=0;" edge="1" parent="WIyWlLk6GJQsqaUBKTNV-1" source="n_A7F0Lf_paovN0THqYE-7" target="n_A7F0Lf_paovN0THqYE-2">
          <mxGeometry relative="1" as="geometry" />
        </mxCell>
        <mxCell id="n_A7F0Lf_paovN0THqYE-7" value="EnseÃ±a" style="rhombus;whiteSpace=wrap;html=1;rounded=0;" vertex="1" parent="WIyWlLk6GJQsqaUBKTNV-1">
          <mxGeometry x="450" y="173.75" width="80" height="42.5" as="geometry" />
        </mxCell>
        <mxCell id="n_A7F0Lf_paovN0THqYE-10" value="1" style="text;html=1;strokeColor=none;fillColor=none;align=center;verticalAlign=middle;whiteSpace=wrap;rounded=0;" vertex="1" parent="WIyWlLk6GJQsqaUBKTNV-1">
          <mxGeometry x="100" y="173.75" width="20" height="20" as="geometry" />
        </mxCell>
        <mxCell id="n_A7F0Lf_paovN0THqYE-11" value="N:M" style="text;html=1;strokeColor=none;fillColor=none;align=center;verticalAlign=middle;whiteSpace=wrap;rounded=0;" vertex="1" parent="WIyWlLk6GJQsqaUBKTNV-1">
          <mxGeometry x="170" y="150" width="40" height="20" as="geometry" />
        </mxCell>
        <mxCell id="n_A7F0Lf_paovN0THqYE-12" value="N:M" style="text;html=1;strokeColor=none;fillColor=none;align=center;verticalAlign=middle;whiteSpace=wrap;rounded=0;" vertex="1" parent="WIyWlLk6GJQsqaUBKTNV-1">
          <mxGeometry x="470" y="155" width="40" height="20" as="geometry" />
        </mxCell>
        <mxCell id="n_A7F0Lf_paovN0THqYE-13" value="1" style="text;html=1;strokeColor=none;fillColor=none;align=center;verticalAlign=middle;whiteSpace=wrap;rounded=0;" vertex="1" parent="WIyWlLk6GJQsqaUBKTNV-1">
          <mxGeometry x="530" y="175" width="40" height="20" as="geometry" />
        </mxCell>
        <mxCell id="n_A7F0Lf_paovN0THqYE-14" value="*" style="text;html=1;strokeColor=none;fillColor=none;align=center;verticalAlign=middle;whiteSpace=wrap;rounded=0;" vertex="1" parent="WIyWlLk6GJQsqaUBKTNV-1">
          <mxGeometry x="120" y="173.75" width="40" height="20" as="geometry" />
        </mxCell>
        <mxCell id="n_A7F0Lf_paovN0THqYE-17" value="*" style="text;html=1;strokeColor=none;fillColor=none;align=center;verticalAlign=middle;whiteSpace=wrap;rounded=0;" vertex="1" parent="WIyWlLk6GJQsqaUBKTNV-1">
          <mxGeometry x="510" y="173.75" width="40" height="20" as="geometry" />
        </mxCell>
        <mxCell id="n_A7F0Lf_paovN0THqYE-19" value="*" style="text;html=1;strokeColor=none;fillColor=none;align=center;verticalAlign=middle;whiteSpace=wrap;rounded=0;" vertex="1" parent="WIyWlLk6GJQsqaUBKTNV-1">
          <mxGeometry x="120" y="173.75" width="40" height="20" as="geometry" />
        </mxCell>
        <mxCell id="n_A7F0Lf_paovN0THqYE-20" value="*" style="text;html=1;strokeColor=none;fillColor=none;align=center;verticalAlign=middle;whiteSpace=wrap;rounded=0;" vertex="1" parent="WIyWlLk6GJQsqaUBKTNV-1">
          <mxGeometry x="240" y="173.75" width="40" height="20" as="geometry" />
        </mxCell>
        <mxCell id="n_A7F0Lf_paovN0THqYE-21" value="*" style="text;html=1;strokeColor=none;fillColor=none;align=center;verticalAlign=middle;whiteSpace=wrap;rounded=0;" vertex="1" parent="WIyWlLk6GJQsqaUBKTNV-1">
          <mxGeometry x="420" y="173.75" width="40" height="20" as="geometry" />
        </mxCell>
        <mxCell id="n_A7F0Lf_paovN0THqYE-22" value="Legajo" style="ellipse;whiteSpace=wrap;html=1;rounded=0;" vertex="1" parent="WIyWlLk6GJQsqaUBKTNV-1">
          <mxGeometry x="5" y="250" width="70" height="45" as="geometry" />
        </mxCell>
        <mxCell id="n_A7F0Lf_paovN0THqYE-24" value="Nombre" style="ellipse;whiteSpace=wrap;html=1;rounded=0;" vertex="1" parent="WIyWlLk6GJQsqaUBKTNV-1">
          <mxGeometry x="-90" y="230" width="60" height="32.5" as="geometry" />
        </mxCell>
        <mxCell id="n_A7F0Lf_paovN0THqYE-29" value="Usuario" style="ellipse;whiteSpace=wrap;html=1;rounded=0;" vertex="1" parent="WIyWlLk6GJQsqaUBKTNV-1">
          <mxGeometry x="-130" y="167.5" width="60" height="32.5" as="geometry" />
        </mxCell>
        <mxCell id="n_A7F0Lf_paovN0THqYE-30" value="" style="endArrow=none;html=1;exitX=1;exitY=0.5;exitDx=0;exitDy=0;entryX=0;entryY=0.5;entryDx=0;entryDy=0;" edge="1" parent="WIyWlLk6GJQsqaUBKTNV-1" source="n_A7F0Lf_paovN0THqYE-29" target="n_A7F0Lf_paovN0THqYE-0">
          <mxGeometry width="50" height="50" relative="1" as="geometry">
            <mxPoint x="-80" y="360" as="sourcePoint" />
            <mxPoint x="-30" y="310" as="targetPoint" />
          </mxGeometry>
        </mxCell>
      </root>
    </mxGraphModel>
  </diagram>
</mxfile>
